<?xml version="1.0" encoding="utf-8"?>
<!-- Generator: Adobe Illustrator 16.0.0, SVG Export Plug-In . SVG Version: 6.00 Build 0)  -->
<!DOCTYPE svg PUBLIC "-//W3C//DTD SVG 1.1//EN" "http://www.w3.org/Graphics/SVG/1.1/DTD/svg11.dtd">
<svg version="1.1" id="Ebene_1" xmlns="http://www.w3.org/2000/svg" xmlns:xlink="http://www.w3.org/1999/xlink" x="0px" y="0px"
	 width="708.355px" height="217.489px" viewBox="0 0 708.355 217.489" enable-background="new 0 0 708.355 217.489"
	 xml:space="preserve">
<g>
	<g>
		<defs>
			<path id="SVGID_1_" d="M590.865,14.657c0,0,21.267-3.444,49.253-3.444c25.321,0,49.293,3.444,49.293,3.444
				s0,66.746-48.978,88.983C590.717,81.403,590.865,14.657,590.865,14.657L590.865,14.657z"/>
		</defs>
		<use xlink:href="#SVGID_1_"  overflow="visible" fill="#FFFFFF"/>
		<clipPath id="SVGID_2_">
			<use xlink:href="#SVGID_1_"  overflow="visible"/>
		</clipPath>
		<path clip-path="url(#SVGID_2_)" fill="none" stroke="#B5152B" stroke-width="19.2988" stroke-miterlimit="3.8637" d="
			M594.742,48.475h91.751 M640.138,11.213v92.342"/>
		
			<use xlink:href="#SVGID_1_"  overflow="visible" fill="none" stroke="#B5152B" stroke-width="4.8385" stroke-miterlimit="3.8637"/>
	</g>
	<polygon fill="#FFFFFF" points="53.194,209.841 53.194,188.232 51.146,188.232 51.146,209.841 53.194,209.841 	"/>
	<path fill="#FFFFFF" d="M107.873,209.841l-3.169-21.609h-2.817l-5.378,15.654c-0.512,1.504-0.832,2.4-1.152,3.842h-0.064
		c-0.224-1.121-0.672-2.529-1.216-4.129l-5.25-15.367h-2.689l-3.009,21.609h2.145l1.633-13.799c0.256-2.24,0.48-4,0.576-5.666h0.032
		c0.224,1.217,0.833,2.85,1.345,4.387l5.154,15.078h2.465l5.442-16.07c0.48-1.41,0.833-2.594,1.024-3.395h0.064
		c0.096,1.121,0.288,2.689,0.672,5.475l2.017,13.99H107.873L107.873,209.841z"/>
	<path fill-rule="evenodd" clip-rule="evenodd" fill="#FFFFFF" d="M182.741,203.501c0-2.305-1.345-4.578-4.738-5.057v-0.033
		c2.529-0.703,4.226-2.785,4.226-5.186c0-3.074-2.113-5.059-6.819-5.059c-2.593,0-4.354,0.064-5.73,0.064v21.609
		c1.632,0.031,3.649,0.096,4.962,0.096C181.557,209.937,182.741,205.71,182.741,203.501L182.741,203.501z M180.116,193.578
		c0,2.721-2.177,4.291-6.21,4.291c-0.864,0-1.473,0-2.177-0.033v-7.971c0.992-0.031,2.177-0.064,3.297-0.064
		C179.092,189.8,180.116,191.402,180.116,193.578L180.116,193.578z M180.628,203.599c0,2.656-1.697,4.674-5.794,4.674
		c-1.473,0-2.465-0.098-3.105-0.193v-8.611c0.576-0.031,1.76-0.031,2.177-0.031C177.651,199.437,180.628,200.333,180.628,203.599
		L180.628,203.599z"/>
	<path fill-rule="evenodd" clip-rule="evenodd" fill="#FFFFFF" d="M226.087,209.841l-6.754-8.035
		c-0.576-0.705-1.313-1.537-1.953-2.242c4.13-0.063,7.363-2.145,7.363-6.113c0-3.971-3.073-5.314-6.979-5.314
		c-2.273,0-3.521,0.031-4.834,0.096v21.609h2.049v-10.213h0.096l8.291,10.213H226.087L226.087,209.841z M222.598,193.802
		c0,2.496-2.017,4.258-5.538,4.258c-1.025,0-1.697-0.031-2.081-0.064v-8.131c0.705-0.064,1.376-0.096,2.209-0.096
		C220.646,189.769,222.598,190.792,222.598,193.802L222.598,193.802z"/>
	<polygon fill="#FFFFFF" points="266.364,209.841 266.364,208.144 257.752,208.144 257.752,199.501 265.948,199.501 
		265.948,197.869 257.752,197.869 257.752,189.896 266.364,189.896 266.364,188.232 255.704,188.232 255.704,209.841 
		266.364,209.841 	"/>
	<polygon fill="#FFFFFF" points="298.921,209.841 298.921,188.232 296.872,188.232 296.872,209.841 298.921,209.841 	"/>
	<path fill="#FFFFFF" d="M341.115,203.695c0-6.756-10.276-4.867-10.276-10.084c0-2.369,1.792-3.938,5.09-3.938
		c1.281,0,2.689,0.223,3.906,0.607l0.128-1.92c-1.249-0.225-2.497-0.385-3.874-0.385c-4.61,0-7.331,2.496-7.331,5.857
		c0,6.723,10.244,4.803,10.244,10.148c0,3.137-2.497,4.322-5.41,4.322c-1.504,0-3.137-0.352-4.417-0.801l-0.128,2.049
		c1.184,0.354,2.721,0.545,4.354,0.545C338.169,210.097,341.115,207.472,341.115,203.695L341.115,203.695z"/>
	<path fill="#FFFFFF" d="M386.672,188.873c-1.953-0.609-3.842-0.896-5.827-0.896c-7.074,0-11.364,4.93-11.364,11.461
		c0,6.754,4.29,10.66,10.629,10.66c2.177,0,4.77-0.385,6.946-1.186v-9.859h-2.049v8.611c-1.408,0.449-2.85,0.705-4.578,0.705
		c-5.186,0-8.771-3.297-8.771-9.285c0-6.402,4.29-9.41,8.932-9.41c1.889,0,3.906,0.416,5.763,1.152L386.672,188.873L386.672,188.873
		z"/>
	<path fill-rule="evenodd" clip-rule="evenodd" fill="#FFFFFF" d="M433.178,209.841l-8.1-21.609h-2.208l-8.132,21.609h2.145
		l2.018-5.506h9.956l1.952,5.506H433.178L433.178,209.841z M428.249,202.669h-8.771l3.394-9.219
		c0.384-1.025,0.704-2.018,0.992-3.041h0.031c0.289,1.088,0.545,2.049,0.961,3.104L428.249,202.669L428.249,202.669z"/>
	<path fill="#FFFFFF" d="M476.81,201.677v-13.445h-2.017v13.637c0,4.834-2.081,6.564-6.211,6.564c-4.93,0-6.018-2.723-6.018-5.924
		v-14.277h-2.05v14.502c0,3.617,1.217,7.363,7.876,7.363C473.993,210.097,476.81,207.152,476.81,201.677L476.81,201.677z"/>
	<path fill="#FFFFFF" d="M98.326,75.747V55.144H38.392v3.313c3.458,1.729,7.06,3.17,10.95,4.178v82.266
		c-4.034,1.008-7.492,2.305-10.95,4.033v3.459h34.29v-3.459c-4.034-1.873-7.636-3.025-11.67-4.033v-39.044h22.908
		c0.864,3.603,2.737,6.915,4.466,10.085h3.602V90.154h-3.602c-1.585,2.737-3.314,6.339-4.466,10.085H61.011V60.907h28.382
		c0.72,4.899,2.593,9.941,4.754,14.84H98.326L98.326,75.747z"/>
	<path fill="#FFFFFF" d="M161.562,81.365c-2.881-1.152-6.771-1.873-10.661-1.873c-9.077,0-14.696,8.068-18.297,19.306l-0.432-0.144
		c0.864-5.763,1.296-12.967,1.296-18.297c-7.348-0.144-16.568,0.576-22.331,1.585v3.458c3.458,0.432,7.492,1.441,10.805,2.449v57.34
		c-3.89,0.865-7.348,2.018-10.805,3.746v3.459h33.425v-3.459c-3.746-1.584-6.916-2.736-11.094-3.746v-28.957
		c0-12.823,6.195-25.79,14.984-25.79c4.466,0,8.068,1.297,11.382,3.026L161.562,81.365L161.562,81.365z"/>
	<path fill-rule="evenodd" clip-rule="evenodd" fill="#FFFFFF" d="M227.675,109.027c0-17.721-8.788-29.39-28.238-29.39
		c-20.314,0-30.832,15.56-30.832,36.738c0,24.492,11.238,37.172,31.408,37.172c10.518,0,20.314-4.322,27.662-10.373l-2.017-4.178
		c-5.187,3.744-13.687,5.906-20.891,5.906c-14.983,0-23.772-9.365-23.772-28.814v-2.162h46.536
		C227.531,112.628,227.675,111.044,227.675,109.027L227.675,109.027z M214.997,108.451h-33.713
		c1.009-13.111,6.916-23.052,17.433-23.052C209.521,85.399,214.997,95.34,214.997,108.451L214.997,108.451z"/>
	<path fill-rule="evenodd" clip-rule="evenodd" fill="#FFFFFF" d="M264.856,60.331c0-4.034-3.458-7.204-7.492-7.204
		c-4.034,0-7.492,3.169-7.492,7.204s3.458,7.348,7.492,7.348C261.398,67.678,264.856,64.365,264.856,60.331L264.856,60.331z
		 M273.212,152.394v-3.459c-3.458-1.584-6.483-2.736-10.662-3.746V80.357c-7.204-0.144-16.568,0.576-22.331,1.585v3.458
		c3.458,0.576,7.492,1.441,10.805,2.449v57.34c-3.89,0.865-7.348,2.018-10.805,3.746v3.459H273.212L273.212,152.394z"/>
	<path fill-rule="evenodd" clip-rule="evenodd" fill="#FFFFFF" d="M353.287,113.349c0-20.025-9.653-33.856-27.519-33.856
		c-11.094,0-20.458,7.78-23.916,16.424l-0.288-0.144c0.432-2.738,0.72-6.483,0.72-10.085V46.355
		c-7.204-0.144-16.568,0.576-22.332,1.585v3.458c3.458,0.577,7.492,1.441,10.806,2.449v96.098c7.204,2.016,15.56,3.313,24.636,3.313
		C336.286,153.257,353.287,140.435,353.287,113.349L353.287,113.349z M341.184,116.375c0,20.459-8.5,31.121-22.908,31.121
		c-6.627,0-11.958-1.441-15.992-4.178v-30.832c0-13.688,8.5-24.637,18.874-24.637C334.125,87.849,341.184,99.375,341.184,116.375
		L341.184,116.375z"/>
	<path fill="#FFFFFF" d="M444.21,150.808v-3.457c-4.034-0.576-7.636-1.586-10.661-2.449V80.357
		c-7.203-0.144-16.28,0.576-22.043,1.585v3.458c3.457,0.576,7.203,1.441,10.518,2.449v32.993c0,11.525-7.204,25.068-20.459,25.068
		c-12.246,0-15.704-11.381-15.704-27.949c0-10.806,0.433-26.222,1.009-37.604c-7.204-0.144-16.568,0.576-22.332,1.585v3.458
		c3.458,0.576,7.348,1.441,10.662,2.449c-0.433,7.636-0.721,23.485-0.721,33.713c0,21.322,7.204,32.129,22.619,32.129
		c12.679,0,22.044-7.492,25.501-16.568l0.289,0.143c-0.577,3.459-0.721,10.373-0.721,15.561
		C430.379,153.115,438.448,151.96,444.21,150.808L444.21,150.808z"/>
	<path fill="#FFFFFF" d="M504.993,81.365c-2.882-1.152-6.771-1.873-10.662-1.873c-9.076,0-14.695,8.068-18.297,19.306l-0.432-0.144
		c0.863-5.763,1.296-12.967,1.296-18.297c-7.348-0.144-16.568,0.576-22.331,1.585v3.458c3.457,0.432,7.492,1.441,10.805,2.449v57.34
		c-3.89,0.865-7.348,2.018-10.805,3.746v3.459h33.425v-3.459c-3.746-1.584-6.916-2.736-11.094-3.746v-28.957
		c0-12.823,6.195-25.79,14.983-25.79c4.467,0,8.068,1.297,11.383,3.026L504.993,81.365L504.993,81.365z"/>
	<path fill-rule="evenodd" clip-rule="evenodd" fill="#FFFFFF" d="M578.31,162.478c0-9.797-7.492-18.441-24.061-19.16l-14.12-0.578
		c-9.508-0.432-12.822-2.736-12.822-6.338c0-2.738,1.729-4.756,4.322-7.061c2.306,0.721,5.764,1.152,8.356,1.152
		c17.721,0,30.399-8.787,30.399-27.373c0-6.339-3.89-14.408-8.788-17.289l14.407,1.585v-6.627h-23.772
		c-2.305-0.576-5.331-1.152-8.645-1.152c-17.864,0-29.247,10.949-29.247,27.806c0,9.653,5.619,17.145,12.103,20.17
		c-5.187,3.314-9.221,8.213-9.221,13.398c0,5.188,2.737,8.645,8.788,10.373c-8.212,3.746-15.848,10.518-15.848,19.018
		c0,11.814,11.382,18.299,30.399,18.299C560.876,188.701,578.31,177.031,578.31,162.478L578.31,162.478z M558.427,106.146
		c0,10.949-4.322,18.441-14.983,18.441c-9.941,0-17.146-7.203-17.146-20.603c0-10.806,4.179-18.297,14.984-18.297
		C551.223,85.688,558.427,92.747,558.427,106.146L558.427,106.146z M566.784,165.648c0,10.518-9.221,16.281-22.476,16.281
		c-13.831,0-23.052-5.908-23.052-14.695c0-6.195,4.467-11.527,11.525-14.553c1.297,0.145,3.17,0.145,4.611,0.145l13.398,0.576
		C561.741,153.833,566.784,158.732,566.784,165.648L566.784,165.648z"/>
</g>
</svg>
