<svg xmlns="http://www.w3.org/2000/svg" xmlns:xlink="http://www.w3.org/1999/xlink" version="1.1" id="Ebene_1" x="0px" y="0px" width="670.27px" height="225.226px" viewBox="0 0 670.27 225.226" enable-background="new 0 0 670.27 225.226" xml:space="preserve">
<g>
	<g>
		<defs>
			<rect id="SVGID_1_" x="4.604" y="13" width="655" height="202"/>
		</defs>
		<clipPath id="SVGID_2_">
			<use xlink:href="#SVGID_1_" overflow="visible"/>
		</clipPath>
		<g clip-path="url(#SVGID_2_)">
			<defs>
				<path id="SVGID_3_" d="M558.019,19.556c0,0,21.267-3.444,49.253-3.444c25.321,0,49.293,3.444,49.293,3.444      s0,66.746-48.978,88.983C557.872,86.302,558.019,19.556,558.019,19.556L558.019,19.556z"/>
			</defs>
			<use xlink:href="#SVGID_3_" overflow="visible" fill="#FFFFFF"/>
			<clipPath id="SVGID_4_">
				<use xlink:href="#SVGID_3_" overflow="visible"/>
			</clipPath>
			
				<line clip-path="url(#SVGID_4_)" fill="none" stroke="#B5152B" stroke-width="19.2988" stroke-miterlimit="3.8637" x1="561.896" y1="53.374" x2="653.647" y2="53.374"/>
			
				<line clip-path="url(#SVGID_4_)" fill="#FFFFFF" stroke="#B5152B" stroke-width="19.2988" stroke-miterlimit="3.8637" x1="607.292" y1="16.112" x2="607.292" y2="108.454"/>
			
				<use xlink:href="#SVGID_3_" overflow="visible" fill="none" stroke="#B5152B" stroke-width="4.8385" stroke-miterlimit="3.8637"/>
		</g>
		<polygon clip-path="url(#SVGID_2_)" points="20.349,214.739 20.349,193.131 18.3,193.131 18.3,214.739 20.349,214.739   "/>
		<path clip-path="url(#SVGID_2_)" d="M75.027,214.739l-3.169-21.608h-2.817l-5.378,15.654c-0.512,1.505-0.832,2.401-1.152,3.842    h-0.064c-0.224-1.121-0.672-2.529-1.216-4.13l-5.25-15.366h-2.689l-3.009,21.608h2.145l1.632-13.797    c0.256-2.241,0.48-4.002,0.576-5.667h0.032c0.224,1.217,0.832,2.85,1.344,4.386l5.154,15.078h2.465l5.442-16.07    c0.48-1.408,0.833-2.593,1.024-3.394h0.064c0.096,1.121,0.288,2.689,0.672,5.475l2.017,13.989H75.027L75.027,214.739z"/>
		<path clip-path="url(#SVGID_2_)" fill-rule="evenodd" clip-rule="evenodd" d="M149.896,208.401c0-2.306-1.345-4.578-4.738-5.059    v-0.031c2.529-0.705,4.226-2.785,4.226-5.187c0-3.073-2.113-5.058-6.819-5.058c-2.593,0-4.354,0.063-5.73,0.063v21.608    c1.633,0.032,3.649,0.097,4.962,0.097C148.711,214.836,149.896,210.61,149.896,208.401L149.896,208.401z M147.271,198.478    c0,2.721-2.177,4.289-6.211,4.289c-0.864,0-1.473,0-2.177-0.032v-7.971c0.993-0.032,2.177-0.064,3.297-0.064    C146.247,194.699,147.271,196.3,147.271,198.478L147.271,198.478z M147.783,208.497c0,2.657-1.697,4.674-5.794,4.674    c-1.473,0-2.465-0.096-3.105-0.192v-8.611c0.577-0.032,1.761-0.032,2.177-0.032C144.806,204.335,147.783,205.231,147.783,208.497    L147.783,208.497z"/>
		<path clip-path="url(#SVGID_2_)" fill-rule="evenodd" clip-rule="evenodd" d="M193.242,214.739l-6.755-8.035    c-0.576-0.704-1.313-1.536-1.953-2.24c4.13-0.064,7.363-2.146,7.363-6.115c0-3.969-3.073-5.313-6.979-5.313    c-2.273,0-3.521,0.032-4.834,0.096v21.608h2.048v-10.212h0.097l8.291,10.212H193.242L193.242,214.739z M189.753,198.701    c0,2.497-2.017,4.258-5.539,4.258c-1.024,0-1.696-0.032-2.081-0.064v-8.131c0.705-0.064,1.377-0.096,2.209-0.096    C187.8,194.668,189.753,195.692,189.753,198.701L189.753,198.701z"/>
		<polygon clip-path="url(#SVGID_2_)" points="233.519,214.739 233.519,213.043 224.907,213.043 224.907,204.399 233.103,204.399     233.103,202.767 224.907,202.767 224.907,194.796 233.519,194.796 233.519,193.131 222.858,193.131 222.858,214.739     233.519,214.739   "/>
		<polygon clip-path="url(#SVGID_2_)" points="266.075,214.739 266.075,193.131 264.027,193.131 264.027,214.739 266.075,214.739       "/>
		<path clip-path="url(#SVGID_2_)" d="M308.269,208.593c0-6.754-10.275-4.865-10.275-10.084c0-2.368,1.792-3.938,5.089-3.938    c1.281,0,2.689,0.225,3.906,0.608l0.128-1.921c-1.249-0.224-2.497-0.384-3.874-0.384c-4.61,0-7.331,2.497-7.331,5.858    c0,6.723,10.244,4.802,10.244,10.147c0,3.138-2.497,4.322-5.41,4.322c-1.505,0-3.138-0.353-4.418-0.801l-0.128,2.049    c1.185,0.353,2.721,0.545,4.354,0.545C305.324,214.996,308.269,212.371,308.269,208.593L308.269,208.593z"/>
		<path clip-path="url(#SVGID_2_)" d="M353.827,193.771c-1.953-0.608-3.842-0.896-5.827-0.896c-7.074,0-11.364,4.93-11.364,11.46    c0,6.755,4.29,10.661,10.628,10.661c2.177,0,4.771-0.385,6.947-1.185v-9.86h-2.049v8.611c-1.409,0.448-2.85,0.704-4.578,0.704    c-5.187,0-8.771-3.297-8.771-9.283c0-6.402,4.29-9.412,8.932-9.412c1.889,0,3.905,0.416,5.763,1.152L353.827,193.771    L353.827,193.771z"/>
		<path clip-path="url(#SVGID_2_)" fill-rule="evenodd" clip-rule="evenodd" d="M400.333,214.739l-8.1-21.608h-2.209l-8.131,21.608    h2.145l2.018-5.506h9.955l1.953,5.506H400.333L400.333,214.739z M395.403,207.568h-8.772l3.394-9.22    c0.385-1.024,0.705-2.017,0.993-3.041h0.031c0.288,1.089,0.545,2.049,0.961,3.105L395.403,207.568L395.403,207.568z"/>
		<path clip-path="url(#SVGID_2_)" d="M443.964,206.576v-13.445h-2.017v13.638c0,4.834-2.081,6.563-6.211,6.563    c-4.93,0-6.019-2.721-6.019-5.923v-14.277h-2.049v14.502c0,3.617,1.217,7.363,7.875,7.363    C441.147,214.996,443.964,212.051,443.964,206.576L443.964,206.576z"/>
		<path clip-path="url(#SVGID_2_)" d="M65.48,80.646V60.043H5.546v3.313c3.458,1.729,7.06,3.17,10.949,4.178v82.266    c-4.034,1.009-7.492,2.305-10.949,4.034v3.457h34.289v-3.457c-4.034-1.873-7.636-3.025-11.67-4.034v-39.044h22.908    c0.865,3.602,2.738,6.915,4.466,10.085h3.602V95.053H55.54c-1.585,2.737-3.313,6.339-4.466,10.085H28.166V65.806h28.383    c0.72,4.898,2.593,9.941,4.754,14.84H65.48L65.48,80.646z"/>
		<path clip-path="url(#SVGID_2_)" d="M128.716,86.264c-2.881-1.153-6.771-1.873-10.662-1.873c-9.077,0-14.695,8.068-18.297,19.306    l-0.432-0.144c0.865-5.763,1.297-12.967,1.297-18.297c-7.348-0.145-16.568,0.576-22.332,1.584v3.458    c3.458,0.432,7.492,1.441,10.806,2.449v57.341c-3.89,0.864-7.348,2.017-10.806,3.746v3.457h33.425v-3.457    c-3.746-1.585-6.916-2.737-11.094-3.746V121.13c0-12.822,6.195-25.789,14.983-25.789c4.466,0,8.068,1.297,11.382,3.025    L128.716,86.264L128.716,86.264z"/>
		<path clip-path="url(#SVGID_2_)" fill-rule="evenodd" clip-rule="evenodd" d="M194.83,113.926    c0-17.721-8.789-29.391-28.238-29.391c-20.314,0-30.832,15.56-30.832,36.739c0,24.492,11.237,37.171,31.408,37.171    c10.518,0,20.314-4.322,27.662-10.374l-2.017-4.178c-5.187,3.746-13.687,5.907-20.891,5.907c-14.983,0-23.772-9.365-23.772-28.814    v-2.161h46.536C194.686,117.528,194.83,115.943,194.83,113.926L194.83,113.926z M182.151,113.35h-33.713    c1.009-13.111,6.916-23.052,17.433-23.052C176.676,90.298,182.151,100.239,182.151,113.35L182.151,113.35z"/>
		<path clip-path="url(#SVGID_2_)" fill-rule="evenodd" clip-rule="evenodd" d="M232.01,65.229c0-4.034-3.458-7.204-7.492-7.204    s-7.492,3.169-7.492,7.204s3.458,7.348,7.492,7.348S232.01,69.264,232.01,65.229L232.01,65.229z M240.367,157.292v-3.457    c-3.458-1.585-6.483-2.737-10.662-3.746V85.256c-7.204-0.145-16.568,0.576-22.332,1.584v3.458    c3.458,0.576,7.492,1.441,10.806,2.449v57.341c-3.89,0.864-7.348,2.017-10.806,3.746v3.457H240.367L240.367,157.292z"/>
		<path clip-path="url(#SVGID_2_)" fill-rule="evenodd" clip-rule="evenodd" d="M320.441,118.249    c0-20.027-9.653-33.858-27.519-33.858c-11.093,0-20.458,7.78-23.916,16.424l-0.288-0.144c0.432-2.737,0.72-6.483,0.72-10.085    V51.254c-7.204-0.144-16.568,0.576-22.331,1.585v3.458c3.458,0.576,7.492,1.441,10.806,2.449v96.097    c7.204,2.018,15.56,3.314,24.636,3.314C303.44,158.157,320.441,145.334,320.441,118.249L320.441,118.249z M308.338,121.274    c0,20.458-8.5,31.119-22.907,31.119c-6.627,0-11.958-1.44-15.993-4.178v-30.832c0-13.687,8.5-24.636,18.874-24.636    C301.279,92.748,308.338,104.273,308.338,121.274L308.338,121.274z"/>
		<path clip-path="url(#SVGID_2_)" d="M411.365,155.708v-3.458c-4.034-0.576-7.636-1.585-10.661-2.449V85.256    c-7.204-0.145-16.28,0.576-22.043,1.584v3.458c3.457,0.576,7.203,1.441,10.517,2.449v32.993c0,11.526-7.203,25.069-20.458,25.069    c-12.246,0-15.704-11.382-15.704-27.951c0-10.805,0.433-26.221,1.008-37.603c-7.203-0.145-16.567,0.576-22.331,1.584v3.458    c3.458,0.576,7.348,1.441,10.662,2.449c-0.433,7.636-0.721,23.484-0.721,33.713c0,21.322,7.203,32.128,22.619,32.128    c12.679,0,22.043-7.491,25.501-16.568l0.288,0.145c-0.576,3.457-0.72,10.373-0.72,15.56    C397.534,158.013,405.602,156.86,411.365,155.708L411.365,155.708z"/>
		<path clip-path="url(#SVGID_2_)" d="M472.147,86.264c-2.882-1.153-6.772-1.873-10.662-1.873c-9.076,0-14.695,8.068-18.297,19.306    l-0.433-0.144c0.864-5.763,1.297-12.967,1.297-18.297c-7.348-0.145-16.568,0.576-22.331,1.584v3.458    c3.457,0.432,7.491,1.441,10.805,2.449v57.341c-3.89,0.864-7.348,2.017-10.805,3.746v3.457h33.425v-3.457    c-3.746-1.585-6.916-2.737-11.094-3.746V121.13c0-12.822,6.195-25.789,14.983-25.789c4.467,0,8.068,1.297,11.382,3.025    L472.147,86.264L472.147,86.264z"/>
		<path clip-path="url(#SVGID_2_)" fill-rule="evenodd" clip-rule="evenodd" d="M545.463,167.377c0-9.797-7.492-18.44-24.061-19.161    l-14.119-0.576c-9.509-0.433-12.822-2.737-12.822-6.34c0-2.737,1.729-4.754,4.322-7.06c2.305,0.721,5.763,1.153,8.356,1.153    c17.721,0,30.399-8.789,30.399-27.374c0-6.339-3.891-14.408-8.789-17.289l14.407,1.585v-6.627h-23.771    c-2.305-0.577-5.331-1.153-8.645-1.153c-17.865,0-29.247,10.95-29.247,27.806c0,9.653,5.619,17.145,12.103,20.17    c-5.187,3.313-9.221,8.212-9.221,13.398c0,5.188,2.737,8.645,8.788,10.374c-8.212,3.745-15.848,10.517-15.848,19.018    c0,11.813,11.382,18.297,30.399,18.297C528.031,193.599,545.463,181.929,545.463,167.377L545.463,167.377z M525.582,111.045    c0,10.949-4.322,18.441-14.984,18.441c-9.94,0-17.145-7.204-17.145-20.603c0-10.806,4.179-18.297,14.983-18.297    C518.377,90.586,525.582,97.646,525.582,111.045L525.582,111.045z M533.938,170.547c0,10.518-9.221,16.28-22.476,16.28    c-13.831,0-23.052-5.906-23.052-14.695c0-6.195,4.466-11.525,11.525-14.552c1.297,0.145,3.17,0.145,4.61,0.145l13.398,0.576    C528.895,158.733,533.938,163.632,533.938,170.547L533.938,170.547z"/>
	</g>
</g>
</svg>